{"title":"Avatar (2009) extended hevc.mp4","uid":12910983,"size":6935250058,"categoryP":"video","categoryS":"hd___movies","magnet":"?xt=urn:btih:550a13f3169c382c6302b8c5126e464f57a9b005&amp;dn=Avatar+%282009%29+extended+hevc.mp4&amp;tr=udp%3A%2F%2Ftracker.leechers-paradise.org%3A6969&amp;tr=udp%3A%2F%2Fzer0day.ch%3A1337&amp;tr=udp%3A%2F%2Fopen.demonii.com%3A1337&amp;tr=udp%3A%2F%2Ftracker.coppersurfer.tk%3A6969&amp;tr=udp%3A%2F%2Fexodus.desync.com%3A6969","seeders":0,"leechers":1,"uploader":"theonlycure","files":1,"time":1449301475,"description":"tt0499549 Avatar Extended Version\r\n\r\nSource: Avatar.2009.EXTENDED.1080p.BluRay.x264-BestHD - Thank you. Just a straight conversion to hevc and converted audio to AAC 512K surround\r\n\r\nFormat                                   : MPEG-4\r\nFormat profile                           : Base Media\r\nCodec ID                                 : isom\r\nFile size                                : 6.46 GiB\r\nDuration                                 : 2h 58mn\r\nOverall bit rate                         : 5190 Kbps\r\nWriting application                      : Lavf57.13.100\r\n\r\nVideo\r\nID                                       : 1\r\nFormat                                   : HEVC\r\nFormat/Info                              : High Efficiency Video Coding\r\nFormat profile                           :   @Main\r\nCodec ID                                 : hev1\r\nCodec ID/Info                            : High Efficiency Video Coding\r\nDuration                                 : 2h 58mn\r\nBit rate                                 : 4671 Kbps\r\nWidth                                    : 1920 pixels\r\nHeight                                   : 1080 pixels\r\nDisplay aspect ratio                     : 16:9\r\nFrame rate mode                          : Constant\r\nFrame rate                               : 23.976 fps\r\nColor space                              : YUV\r\nChroma subsampling                       : 4:2:0\r\nBit depth                                : 8 bits\r\nScan type                                : Progressive\r\nBits/(Pixel*Frame)                       : 0.094\r\nStream size                              : 5.81 GiB (90%)\r\nLanguage                                 : English\r\n\r\nAudio\r\nID                                       : 2\r\nFormat                                   : AAC\r\nFormat/Info                              : Advanced Audio Codec\r\nFormat profile                           : LC\r\nCodec ID                                 : 40\r\nDuration                                 : 2h 58mn\r\nBit rate mode                            : Constant\r\nBit rate                                 : 512 Kbps\r\nChannel(s)                               : 2 channels\r\nChannel(s)_Original                      : 6 channels\r\nChannel positions                        : Front: L C R, Side: L R, LFE\r\nSampling rate                            : 48.0 KHz\r\nCompression mode                         : Lossy\r\nStream size                              : 652 MiB (10%)\r\nLanguage                                 : English","torrent":{"xt":"urn:btih:550a13f3169c382c6302b8c5126e464f57a9b005","amp;dn":"Avatar+%282009%29+extended+hevc.mp4","amp;tr":["udp%3A%2F%2Ftracker.leechers-paradise.org%3A6969","udp%3A%2F%2Fzer0day.ch%3A1337","udp%3A%2F%2Fopen.demonii.com%3A1337","udp%3A%2F%2Ftracker.coppersurfer.tk%3A6969","udp%3A%2F%2Fexodus.desync.com%3A6969"],"infoHash":"550a13f3169c382c6302b8c5126e464f57a9b005","infoHashBuffer":{"type":"Buffer","data":[85,10,19,243,22,156,56,44,99,2,184,197,18,110,70,79,87,169,176,5]},"announce":[],"urlList":[]}}